<svg width="120" height="120" viewBox="0 0 120 120" fill="none" xmlns="http://www.w3.org/2000/svg">
<path opacity="0.5" d="M38.6054 20.9798C39.4837 19.678 40.9514 18.8977 42.5218 18.8977H81.6888C85.474 18.8977 87.7222 23.1266 85.6052 26.2644L54.8045 71.9172C53.9262 73.219 52.4585 73.9993 50.8881 73.9993H11.7211C7.93594 73.9993 5.68771 69.7704 7.80472 66.6326L38.6054 20.9798Z" fill="#DA4BDD"/>
<path d="M44.7362 79.106C43.1658 79.106 41.6981 79.8863 40.8198 81.1881L32.7956 93.0816C30.6786 96.2194 32.9269 100.448 36.7121 100.448H78.2776C79.848 100.448 81.3158 99.6679 82.194 98.3661L112.995 52.7134C115.112 49.5756 112.864 45.3467 109.078 45.3467H81.386C79.8156 45.3467 78.3479 46.127 77.4696 47.4288L57.5025 77.0239C56.6242 78.3257 55.1564 79.106 53.586 79.106H44.7362Z" fill="#DA4BDD"/>
</svg>
